<?xml version="1.0" encoding="UTF-8"?>
<svg id="Layer_1" data-name="Layer 1" xmlns="http://www.w3.org/2000/svg" viewBox="0 0 1207.37 623.25">
  <defs>
    <style>
      .cls-1 {
        fill: #221f20;
      }
    </style>
  </defs>
  <path class="cls-1" d="M1202.42,578.95c-5.74-1.6-9.05,.72-11.24,2.26-.25,.18-.5,.35-.76,.52-8.39,5.53-17.77,10.59-29.52,15.9-21.87,9.89-43.57,14.44-64.5,13.49-21.25-.96-42.39-7.6-62.86-19.74-25.48-15.12-47.47-35.51-68.74-55.22-3.23-3-6.46-5.99-9.71-8.97-16.14-14.82-30-25.41-43.64-33.33-17.16-9.97-34.35-15.94-52.56-18.27-14.85-1.9-28.76,.1-40.24,5.78-12.84,6.35-22.03,17.14-26.58,31.2-.92,2.84-1.55,3.22-4.27,2.51-23.12-5.99-46.95-6.9-70.01-7.77-5.04-.19-10.25-.39-15.37-.64-33.2-1.61-68.49-4.11-102.83-15.16-.64-.21-1.3-.39-1.98-.57-.65-.17-1.23-.33-1.75-.5,1.36-.76,2.65-1.49,3.95-2.23,38.43-21.87,67.26-47.99,88.14-79.85,11.87-18.11,24.71-42.69,18.55-72.27-5.36-25.79-22.75-44.08-50.27-52.91-21.01-6.74-41-.73-59.4,17.85l-1.44,1.45c-4.07,4.09-8.29,8.32-11.5,13.3-1.3,2.02-2.1,2.77-2.45,3.03-.41-.29-1.28-1.12-2.96-3.49-4.06-5.73-9.26-11.38-15.89-17.25-15.33-13.6-35.36-19.03-54.96-14.89-19.86,4.19-36.24,17.5-44.94,36.51-10.11,22.09-8.76,45.08,4.24,72.33,19.49,40.86,50.57,72.37,95.01,96.32,.9,.48,1.87,.85,2.81,1.21,.81,.31,2.26,.86,2.77,1.28-.55,.41-2.31,.82-3.29,1.05-1,.24-2.04,.48-3.02,.84-31.36,11.31-65.96,14.95-108.9,11.44-29.15-2.38-53.2-10-73.51-23.3-38.79-25.4-58.24-58.51-59.48-101.23-.19-6.46,1.36-8.75,6.87-10.21,12.43-3.3,24.09-10.01,35.63-20.5,10.93-9.93,15.87-21.31,14.68-33.8-.91-9.57-5.68-17.01-13.09-20.43-7.43-3.43-16.22-2.21-24.1,3.32-8.13,5.71-13.12,13.71-16.57,20.05-6.42,11.81-10.97,24.73-13.52,38.39-.85,4.55-2.42,6.03-6.71,6.33-50.66,3.6-92.79-13.08-125.24-49.56-27.62-31.06-37.36-69.53-29.77-117.59,6-38.04,1.45-73.28-13.54-104.75-12.44-26.12-28.39-46.89-47.4-61.75C66.21,13.16,41.66,3.52,13.63,.44c-.39-.04-.79-.1-1.18-.15C9.49-.13,4.55-.81,1.31,4.17L0,6.19l1.42,1.95c2.94,4.02,6.82,4.05,9.39,4.06,.45,0,.89,0,1.32,.03,23.65,1.55,44.81,9.44,62.88,23.44,24.02,18.62,41.35,41.08,51.5,66.77,9.7,24.56,13.14,52.79,10.21,83.92-.33,3.53-.72,7.13-1.09,10.6-1.25,11.73-2.55,23.85-2.11,36.04,1.82,50.43,27.17,83.16,48.11,101.72,31.69,28.1,76.42,43.47,116.75,40.07,3.97-.33,6.27-.08,7.25,.78,.93,.82,1.47,2.96,1.61,6.36,1.24,30.18,12.73,58.47,33.25,81.83,19.05,21.68,44.9,37.64,72.79,44.96,54.96,14.41,108.89,11.65,160.31-8.19,.46-.18,.91-.36,1.36-.54,4-1.59,6.61-2.5,9.73-1.29,37.77,14.67,77.24,17.25,115.42,19.74,7.6,.5,15.33,.75,22.79,.99,16.63,.54,33.83,1.1,50.37,4.43l2.7,.54c6.33,1.26,10.51,2.09,11.78,3.57,1.28,1.5,1.23,5.9,1.03,11.97-.24,7.17,1.26,14.88,4.59,23.56,2.91,7.57,6.95,13.32,12.37,17.58,8.86,6.97,21.72,7.37,29.92,.94,8.08-6.34,9.9-17.78,4.52-28.47-1.59-3.17-3.73-6.29-6.36-9.28-6.98-7.96-15.72-16.81-27.6-22.09-3.3-1.47-3.98-2.5-2.51-7.01,5.28-16.11,19.31-26.7,36.6-27.65,30.64-1.68,59.17,8.34,84.85,29.79,12.53,10.46,24.92,21.55,36.91,32.28,9.52,8.52,19.36,17.32,29.23,25.79,22.07,18.92,42,31.31,62.7,39,15.95,5.92,31.75,8.87,47.74,8.87,9.59,0,19.25-1.06,29.05-3.17,21.96-4.74,44.76-14.91,69.71-31.11,1.2-.78,1.89-1.82,2.62-2.91,.31-.46,.67-1,1.13-1.62l3.1-4.1-4.96-1.38Zm-374.38-6.08c-4.24,3.74-12.32,2.29-17.3-3.1-7.86-8.52-9.35-19.51-9.74-29.18,.13-1.37,0-2.72-.12-4.02-.17-1.88-.27-3.33,.2-3.62,.92-.56,1.86-.13,4.79,2.16,.73,.57,1.49,1.16,2.27,1.68,9.53,6.34,15.98,12.69,20.29,19.97,4.42,7.45,4.31,11.97-.39,16.12Zm-265.77-258.81c1.32,1.44,2.68,2.93,4.1,4.36,7.51,7.62,8.4,14.18,3.1,22.65-5.7,9.1-6.72,19.28-2.85,28.66,.88,2.14,3.56,8.66,10.92,9.36,7.25,.69,10.95-5.17,12.35-7.37,5.79-9.11,6.3-19.99,1.48-31.48-3.22-7.68-2.14-13.23,3.99-20.49,13.17-15.59,25.64-26.16,43.7-27.02,13.24-.65,26.13,4.39,36.3,14.14,13.12,12.58,20.28,31.17,20.16,52.34-.56,17.22-11.93,39.44-32.01,62.57-20.93,24.11-46.22,44.06-75.18,59.3-4.69,2.47-7.55,3.33-11.16,1.58-51.34-25-85.15-59.31-103.37-104.88-9.88-24.72-7.75-45.56,6.52-63.7,9.65-12.27,22.6-19.67,36.46-20.83,1.28-.11,2.56-.16,3.84-.16,12.53,0,24.97,5.09,35.39,14.56,2.17,1.97,4.15,4.13,6.25,6.42Zm-241.07,44.51c0-.44,.04-1.18,.28-2.33,4.13-19.65,10.63-33.98,20.45-45.1,4.05-4.59,7.59-6.75,11.26-6.75,1.3,0,2.61,.27,3.96,.8,3.39,1.33,7.89,4.2,7.95,13.75-.21,5.79-2.23,11.01-6.03,15.51-8.79,10.42-20.23,18.06-34.97,23.35-1.49,.53-2.39,.72-2.91,.77Z"/>
</svg>