<?xml version="1.0" encoding="UTF-8"?>
<svg id="Layer_1" data-name="Layer 1" xmlns="http://www.w3.org/2000/svg" viewBox="0 0 469.29 469.67">
  <g id="N8yC1g.tif">
    <path d="M241.22,469.66h-12.82c-12.66-3.83-21.54-14.17-20.54-29.8,.33-5.17-.08-10.39,.09-15.57,.12-3.54-1.27-5-4.82-4.91-5.18,.14-10.38,.19-15.56-.05-16.29-.74-28.19-12.44-28.03-27.39,.16-15.53,12.52-26.97,29.22-27.03,4.88-.02,9.77-.12,14.65,.02,3.39,.1,4.63-1.37,4.54-4.67-.14-5.19-.03-10.38-.03-15.58q0-10.74-10.3-13.14c-88.34-20.62-144.62-106.59-127.71-195.12C86.87,47.54,170.87-12.57,260.67,2.25c68.27,11.27,112.96,52.03,134.91,117.66,3.84,11.48,5.35,23.45,6.8,35.41v24.74c-.47,3.47-.91,6.94-1.42,10.4-7.39,50.05-32.24,89.16-73.94,117.51-18.24,12.4-38.38,20.53-60.1,24.56-3.76,.7-5.5,2.21-5.31,6.34,.32,7,.23,14.04,.03,21.05-.11,3.84,1.44,5.14,5.14,5.02,5.48-.19,10.98-.16,16.47,0,14.53,.41,25.88,11.56,26.78,26.16,.82,13.34-9.58,25.51-23.51,27.7-6.38,1.01-12.79,.63-19.17,.51-4.46-.08-5.97,1.57-5.71,5.92,.29,4.87-.2,9.78,.11,14.64,.98,15.3-7.54,25.8-20.54,29.77ZM121.38,167.74c-.88,60.67,49.23,113.43,112.82,113.76,64.54,.34,114.09-53.03,114.25-113.45,.15-58.6-46.74-113.75-113.24-113.98-66.7-.22-114.79,54.98-113.82,113.66Z"/>
  </g>
</svg>