<?xml version="1.0" encoding="UTF-8"?>
<svg id="Layer_1" data-name="Layer 1" xmlns="http://www.w3.org/2000/svg" viewBox="0 0 469.29 469.67">
  <g id="hHj7Fj.tif">
    <path d="M238.92,442.01h-9.15c-3.28-1.38-5.97-3.6-8.64-5.9-27.16-23.35-54.44-46.58-81.52-70.03-31.92-27.65-64-55.15-91.48-87.45-17.2-20.22-31.8-42.02-40.63-67.32C3.87,200.91,1.97,190.14,0,179.36,0,168.68,0,158.01,0,147.33c.82-4.95,1.52-9.93,2.5-14.85C13.24,78.54,52.22,37.59,104.96,29.41c23.48-3.64,46.21-1.19,67.78,9.23,25.45,12.29,43.9,31.97,58.34,55.8,3.28,5.41,3.24,5.42,6.41,.18,7.85-12.99,17.09-24.84,28.17-35.28,40.79-38.45,99.08-40.64,142.51-13.38,38.76,24.32,56.9,61.29,60.61,105.76,3.08,37-7.94,70.41-28.52,100.97-20.29,30.12-45.97,55.3-72.68,79.5-35.61,32.26-72.56,62.98-108.94,94.36-6.32,5.45-11.98,11.81-19.72,15.47Z"/>
  </g>
</svg>