<?xml version="1.0" encoding="UTF-8"?>
<svg id="Layer_1" data-name="Layer 1" xmlns="http://www.w3.org/2000/svg" viewBox="0 0 469.29 469.67">
  <g id="zN2am7.tif">
    <path d="M251.68,468.19h-34.58c-6.39-1.13-12.88-1.88-19.16-3.46-65.42-16.43-107.98-57.02-127.69-121.55-3.59-11.77-4.87-23.98-6.03-36.18,0-4.86,0-9.71,0-14.57,.98-5.97,1.66-12.01,2.98-17.91,6.59-29.31,19.56-56.04,33.86-82.17,24.45-44.68,53.58-86.32,83.23-127.62,13.97-19.46,29.18-38.03,41.58-58.61,2.67-4.44,8.2-5.79,12.83-3.67,2.75,1.26,4.43,3.63,6.21,5.88,28.33,35.85,55.14,72.8,80.11,111.07,24.56,37.65,47.6,76.16,64.71,117.91,11.25,27.47,18.4,55.56,13.14,85.55-11.11,63.36-46.11,107.98-105.09,133.6-14.69,6.39-30.32,9.44-46.1,11.71Z"/>
  </g>
</svg>