<?xml version="1.0" encoding="UTF-8"?>
<svg id="Layer_1" data-name="Layer 1" xmlns="http://www.w3.org/2000/svg" viewBox="0 0 469.29 469.67">
  <g id="KA8KMI.tif">
    <g>
      <path d="M0,56.55c2.73-15.72,9.37-29.36,21.52-40C33.5,6.05,47.5,.71,63.4,.39c5.65-.11,11.31-.13,16.96,.02,12.35,.32,21.76,9.98,21.7,22.1-.06,12.01-9.72,21.33-22.2,21.4-4.66,.03-9.32-.11-13.97,.05-13.83,.45-22.47,8.83-22.55,22.69-.2,34.75-.56,69.51,.07,104.25,.66,35.94,15.25,65.36,44.66,86.58,62.21,44.88,151.43,8.82,165.18-66.57,1.25-6.88,1.96-13.78,1.95-20.79-.07-34.25-.02-68.5-.04-102.75,0-14.67-8.35-23.11-23.14-23.42-4.32-.09-8.65,0-12.97-.03-12.31-.07-21.09-7.97-22.47-20.2-1.16-10.31,6.93-21.67,18.1-22.78,16.21-1.6,32.68-2.02,47.8,5.92,23.14,12.14,35.98,31.07,36.16,57.53,.25,36.41,.7,72.84-.09,109.24-1.2,55.81-26.88,97.95-74.16,127.04-14.7,9.04-30.82,14.81-47.88,17.68-4.13,.7-5.44,2.06-5.17,6.79,1.3,22.65,8.55,42.99,22.72,60.6,19.41,24.13,44.58,37.6,75.71,39.94,55.73,4.17,102.38-35.84,111.27-85.97,1.75-9.88,7.01-16.81,17.02-19.31,8.79-2.2,16.07,.76,21.84,7.48,3.98,4.63,5.59,10.12,4.76,16.21-7.81,57.91-54.53,108.21-113.27,121.79-6.93,1.6-14.01,2.54-21.02,3.78h-25.94c-5.56-.89-11.15-1.59-16.67-2.68-67.22-13.38-117.82-71.09-120.19-141.99-.15-4.46-1.66-5.9-5.79-6.76-52.45-10.94-89.39-41.11-110.86-90.16-6.11-13.95-9.03-28.77-10.92-43.8V56.55Z"/>
      <path d="M469.29,213.73c.03,35.55-28.81,64.58-64.22,64.64-35.63,.06-64.99-29.15-64.94-64.61,.05-35.1,29.6-64.6,64.65-64.56,35.31,.04,64.48,29.22,64.51,64.53Z"/>
    </g>
  </g>
</svg>