<?xml version="1.0" encoding="UTF-8"?>
<svg id="Layer_1" data-name="Layer 1" xmlns="http://www.w3.org/2000/svg" viewBox="0 0 469.29 469.67">
  <g id="wNdKfN.tif">
    <path d="M347.23,161v7.31c-1.12,1.44-2.18,2.93-3.36,4.32-81.67,97.17-163.35,194.33-245.02,291.5-1.58,1.89-3.33,3.54-5.37,4.91h-6.39c-5.49-3.98-6.21-7.08-3.2-14.23,27.66-65.81,55.33-131.63,82.98-197.44,2.59-6.15,2.45-6.36-4.08-6.36-23.27,0-46.54,.02-69.82-.02-9.76-.01-13.37-5.57-9.07-14.2C122.09,160.21,160.34,83.68,198.51,7.1c2.22-4.44,5.35-6.49,10.43-6.48,40.31,.11,80.62,.05,120.93,.07,9.13,0,12.62,6.11,8.08,13.94-.69,1.18-1.46,2.32-2.19,3.48-28,44.26-56,88.51-83.96,132.79-.84,1.34-2.68,2.71-1.72,4.41,.94,1.66,3.06,.86,4.65,.87,26.92,.05,53.85,.07,80.77,0,4.66-.01,8.74,.93,11.72,4.81Z"/>
  </g>
</svg>