<?xml version="1.0" encoding="UTF-8"?>
<svg id="Layer_1" data-name="Layer 1" xmlns="http://www.w3.org/2000/svg" viewBox="0 0 469.29 469.67">
  <g id="VRdEvQ.tif">
    <path d="M0,162.19v-46.45c.57-3.82,1.08-7.64,1.71-11.45,2.65-16.25,6.76-32.04,17.26-45.2,12.15-15.23,28.17-21.83,47.61-19.51,13.76,1.65,25.57,8.04,36.69,15.84,19.6,13.75,35.84,31.01,50.94,49.4,29.8,36.28,54.59,75.89,77.29,116.86,.77,1.39,1.02,3.74,2.98,3.65,1.84-.08,2.03-2.42,2.95-3.77,.28-.41,.49-.88,.73-1.32,25.77-46.24,53.82-90.94,89.41-130.43,15.5-17.19,32.27-32.97,53.23-43.52,9.43-4.75,19.43-8.05,30.06-7.32,21.08,1.45,36.33,12.06,45.77,30.91,8.69,17.34,11.59,36.08,12.38,55.17,1.46,35.33-3.07,70.11-10.38,104.57-2.15,10.15-3.63,20.58-9.68,29.51-8.44,12.45-20.82,18.79-34.86,22.37-16.68,4.25-33.65,3.92-50.64,2.48-3.7-.31-7.39-.66-12.06-1.07,8.24,9.72,15.3,18.89,21.11,28.97,9.92,17.2,16.51,35.44,15.63,55.56-.93,21.34-8.28,39.72-26.7,52.29-9.69,6.61-20.7,9.43-32.11,11.06h-13.13c-.48-.16-.95-.39-1.44-.46-40.96-5.83-66.9-28.99-78.88-68.28-.32-1.05-.34-2.32-1.77-3.2-.53,1.66-1.05,3.2-1.51,4.75-6.88,23.24-20.42,41.46-41.11,54.22-11.95,7.37-25.13,11.15-38.94,12.96h-13.13c-.64-.18-1.28-.46-1.93-.54-43.11-4.81-60.46-40.06-56.32-75.29,2.68-22.76,13.03-42.15,26.57-60.1,2.89-3.84,5.95-7.55,9.78-12.38-14.34,2.63-27.57,2.58-40.77,2.17-12.35-.38-24.37-2.75-35.66-7.98-14.4-6.68-24.14-17.37-27.85-33.08-2.93-12.42-5.45-24.92-7.6-37.5C3.12,191.53,1.63,176.86,0,162.19Z"/>
  </g>
</svg>