<?xml version="1.0" encoding="UTF-8"?>
<svg id="Layer_1" data-name="Layer 1" xmlns="http://www.w3.org/2000/svg" viewBox="0 0 469.29 469.67">
  <defs>
    <style>
      .cls-1 {
        fill: #010101;
      }

      .cls-2 {
        fill: #221f20;
      }
    </style>
  </defs>
  <path class="cls-1" d="M390.97,78.5C349.52,37.05,294.4,14.05,235.71,13.75h-2.2c-59.05,.3-114.45,23.58-155.99,65.55C35.97,121.28,13.26,176.91,13.57,235.97c.62,121.52,99.68,219.95,221.06,219.95,.38,0,.77,0,1.15,0,59.05-.3,114.45-23.58,156-65.55,41.54-41.97,64.25-97.61,63.95-156.66-.3-58.62-23.3-113.74-64.75-155.2Zm-36.71,146.77c-.97-26.49-5.73-52.45-14.07-77.22,17.71-7.03,34.87-15.91,51.2-26.62,21.96,30.23,34.62,66.05,36.45,103.84h-73.58Zm73.59,19.13c-1.89,38.62-15.17,74.32-36.56,103.79-16.12-10.57-33.05-19.37-50.52-26.35,6.57-20.14,10.86-41.19,12.68-62.83,.41-4.88,.7-9.76,.85-14.62h73.54Zm-48.53-137.97c-14.67,9.47-30.03,17.4-45.87,23.71-10.74-25.74-25.48-49.95-43.99-71.87-3.41-4.04-6.96-7.98-10.61-11.83,34.79,8.1,66.72,25.74,92.58,51.6,2.73,2.73,5.35,5.53,7.89,8.39ZM248.84,427.75c-1.54,.11-3.08,.21-4.63,.28v-107.28c24.32,.87,48.55,5.06,71.97,12.57-14.7,35.88-37.55,68.1-67.34,94.43Zm-54.4-26.57c-17.46-20.67-31.32-43.54-41.34-67.85,23.42-7.51,47.65-11.7,71.97-12.57v107.29c-1.55-.08-3.1-.17-4.65-.29-9.28-8.21-18-17.13-25.99-26.58ZM223.11,41.73c.66-.04,1.31-.07,1.97-.1v107.29c-24.06-.86-48.01-4.97-71.19-12.32,15.16-36.19,38.65-68.58,69.22-94.86Zm51.74,28.89c17.01,20.14,30.6,42.36,40.56,65.97-23.18,7.35-47.13,11.46-71.19,12.32V41.63c.66,.03,1.33,.07,1.99,.11,10.27,8.84,19.9,18.54,28.64,28.89Zm47.33,83.9c7.61,22.71,11.98,46.49,12.94,70.75h-90.91v-57.21c26.34-.88,52.6-5.39,77.96-13.54Zm-97.09,13.54v57.21h-90.87c.15-3.62,.38-7.25,.69-10.89,1.74-20.64,5.88-40.69,12.26-59.85,25.35,8.14,51.59,12.65,77.92,13.53Zm0,76.34v57.21c-26.56,.89-53.04,5.47-78.6,13.74-7.44-22.79-11.62-46.64-12.38-70.96h90.98Zm19.13,57.21v-57.21h90.95c-.15,4.33-.41,8.67-.77,13.01-1.68,19.95-5.61,39.35-11.62,57.93-25.54-8.27-52.01-12.85-78.56-13.73ZM190.41,46.44c-23.36,24.54-41.78,52.84-54.57,83.7-15.85-6.32-31.21-14.24-45.88-23.71,2.32-2.61,4.72-5.18,7.2-7.68,25.98-26.24,58.15-44.13,93.25-52.3ZM115.83,212.78c-.35,4.17-.61,8.34-.77,12.49H41.44c1.82-37.77,14.46-73.59,36.45-103.84,16.35,10.72,33.52,19.61,51.25,26.64-6.93,20.71-11.42,42.39-13.3,64.71Zm12.64,109.09c-17.46,6.98-34.36,15.77-50.48,26.33-21.37-29.45-34.66-65.14-36.55-103.8H114.96c.77,26.56,5.34,52.59,13.52,77.46Zm-38.42,41.32c14.41-9.3,29.49-17.1,45.04-23.35,10.8,26.41,25.8,51.26,44.75,73.69,2.58,3.06,5.24,6.06,7.96,9.01-38.36-9.58-72.24-30.65-97.74-59.35Zm191.52,59.33c22.55-24.36,40.3-52.31,52.63-82.68,15.55,6.25,30.63,14.06,45.04,23.36-25.47,28.66-59.31,49.73-97.67,59.32Z"/>
  <path class="cls-2" d="M234.63,461.82c-60.29,0-117.11-23.48-159.98-66.12C31.76,353.04,7.97,296.33,7.66,236c-.31-60.63,23.01-117.75,65.66-160.84S172.85,8.16,233.48,7.85h2.23c60.26,.31,116.88,23.92,159.44,66.48h0s0,0,0,0c42.56,42.56,66.17,99.15,66.48,159.34,.31,60.63-23.01,117.75-65.66,160.84-42.65,43.09-99.53,66.99-160.16,67.31h-1.18Zm1.05-442.16h-2.17c-57.45,.29-111.37,22.95-151.8,63.8C41.28,124.31,19.17,178.46,19.47,235.94c.29,57.19,22.85,110.95,63.51,151.39,40.64,40.42,94.5,62.69,151.65,62.69h1.12c57.48-.3,111.4-22.96,151.83-63.81,40.43-40.85,62.54-95,62.24-152.48-.29-57.06-22.67-110.7-63.02-151.05h0c-40.35-40.35-94.02-62.73-151.12-63.02Zm-4.7,414.59l-6.19-.3c-1.53-.07-3.1-.17-4.79-.29l-1.99-.14-1.49-1.32c-9.5-8.41-18.44-17.56-26.58-27.19h0c-17.72-20.99-31.95-44.34-42.29-69.41l-2.44-5.92,6.09-1.95c23.8-7.63,48.55-11.95,73.56-12.85l6.11-.22v119.61Zm-32.03-36.88c6.28,7.43,13.06,14.57,20.22,21.26v-91.69c-19.69,1.17-39.16,4.55-58.06,10.1,9.61,21.68,22.32,41.95,37.84,60.32h0Zm39.35,36.87v-119.6l6.11,.22c25.01,.9,49.76,5.22,73.56,12.85l6.08,1.95-2.42,5.91c-15.23,37.17-38.41,69.68-68.89,96.61l-1.49,1.32-1.99,.14c-1.63,.12-3.24,.22-4.77,.29l-6.19,.3Zm11.81-107.29v91.68c24.98-23.29,44.48-50.68,58.07-81.58-18.9-5.55-38.38-8.93-58.07-10.1Zm13.66,106.1l13.46-14.55c22.04-23.81,39.37-51.03,51.49-80.89l2.21-5.45,5.46,2.19c15.93,6.4,31.42,14.44,46.04,23.88l5.79,3.73-4.57,5.15c-26.87,30.25-61.68,51.38-100.65,61.13l-19.23,4.81Zm73.6-85.51c-9.8,22.74-22.54,43.95-38,63.32,26.72-9.82,50.81-25.62,70.71-46.45-10.54-6.41-21.5-12.07-32.71-16.87Zm-131.85,85.51l-19.16-4.79c-39-9.74-73.83-30.89-100.72-61.15l-4.58-5.15,5.79-3.73c14.63-9.44,30.12-17.47,46.03-23.87l5.45-2.19,2.22,5.43c10.65,26.06,25.38,50.32,43.79,72.11,2.47,2.93,5.09,5.89,7.79,8.82l13.39,14.52Zm-106.32-68.63c19.95,20.86,44.08,36.68,70.85,46.5-15.52-19.49-28.32-40.76-38.13-63.38-11.21,4.81-22.17,10.46-32.72,16.88Zm-22.68-8.19l-3.31-4.56c-22.75-31.35-35.78-68.34-37.67-106.98l-.3-6.19H120.69l.17,5.73c.75,25.87,5.2,51.37,13.22,75.79l1.73,5.27-5.15,2.06c-17.16,6.86-33.79,15.53-49.43,25.79l-4.71,3.09Zm-28.78-105.92c2.65,32.25,13.57,63.09,31.82,89.87,13.32-8.36,27.28-15.64,41.63-21.7-6.78-22.08-10.78-44.96-11.92-68.17H47.75Zm345.02,105.91l-4.71-3.09c-15.65-10.26-32.3-18.94-49.47-25.8l-5.14-2.05,1.72-5.26c6.46-19.8,10.64-40.49,12.41-61.49,.4-4.75,.68-9.57,.83-14.31l.18-5.71h85.46l-.3,6.19c-1.89,38.62-14.92,75.61-37.68,106.97l-3.31,4.56Zm-44.72-37.77c14.37,6.07,28.35,13.35,41.68,21.72,18.26-26.79,29.19-57.63,31.83-89.87h-61.58c-.16,3.08-.37,6.16-.63,9.21-1.69,20.07-5.49,39.87-11.3,58.93Zm-205.34,4.34l-1.83-5.6c-7.64-23.41-11.9-47.83-12.67-72.6l-.19-6.09h102.98v68.82l-5.71,.19c-26.19,.87-52.09,5.4-76.97,13.46l-5.6,1.81Zm-2.43-72.48c1.09,19.61,4.47,38.95,10.09,57.66,22.36-6.74,45.46-10.77,68.82-12v-45.65h-78.91Zm186.3,72.47l-5.61-1.82c-24.87-8.05-50.76-12.57-76.93-13.45l-5.71-.19v-68.82h102.97l-.21,6.11c-.15,4.41-.42,8.89-.79,13.31-1.7,20.23-5.7,40.16-11.89,59.25l-1.82,5.61Zm-76.45-26.82c23.34,1.24,46.42,5.26,68.77,11.99,4.93-16.53,8.16-33.66,9.62-51.03,.19-2.19,.34-4.4,.47-6.61h-78.87v45.65Zm183.93-64.78h-85.47l-.21-5.69c-.94-25.81-5.58-51.23-13.77-75.55l-1.79-5.3,5.2-2.07c17.47-6.94,34.34-15.71,50.14-26.07l4.71-3.09,3.31,4.55c22.7,31.25,35.69,68.26,37.57,107.02l.3,6.19Zm-74.15-11.81h61.65c-2.63-32.35-13.52-63.21-31.72-89.91-13.49,8.47-27.69,15.85-42.32,21.99,6.92,21.99,11.08,44.78,12.39,67.92Zm-18.64,11.81h-102.95v-68.82l5.71-.19c25.97-.87,51.66-5.33,76.35-13.26l5.55-1.78,1.85,5.53c7.81,23.31,12.27,47.67,13.24,72.39l.24,6.14Zm-91.14-11.81h78.78c-1.25-19.57-4.79-38.85-10.56-57.48-22.18,6.63-45.08,10.6-68.23,11.83v45.65Zm-19.13,11.81h-102.94l.26-6.16c.16-3.7,.4-7.45,.71-11.13,1.76-20.93,5.98-41.52,12.54-61.22l1.84-5.54,5.56,1.79c24.68,7.93,50.35,12.38,76.32,13.25l5.71,.19v68.82Zm-90.54-11.81h78.73v-45.65c-23.14-1.22-46.02-5.19-68.18-11.81-5.26,17.13-8.69,34.92-10.21,52.98-.13,1.49-.24,2.99-.34,4.49Zm-19.71,11.81H35.24l.3-6.19c1.87-38.77,14.86-75.78,37.57-107.03l3.31-4.55,4.71,3.09c15.81,10.37,32.7,19.15,50.19,26.09l5.19,2.06-1.77,5.3c-6.81,20.36-11.19,41.67-13.02,63.33h0c-.34,4.05-.6,8.16-.76,12.23l-.23,5.67Zm-73-11.81h61.71c.14-2.37,.31-4.74,.51-7.09h0c1.75-20.73,5.74-41.17,11.88-60.81-14.65-6.15-28.86-13.53-42.37-22.02-18.21,26.7-29.1,57.56-31.72,89.92Zm190.57-64.33V35.43l6.19,.3c.68,.03,1.37,.07,2.05,.11l1.99,.12,1.51,1.3c10.55,9.08,20.41,19.02,29.3,29.55h0c17.26,20.45,31.22,43.15,41.49,67.49l2.52,5.96-6.17,1.96c-23.55,7.47-48.03,11.71-72.76,12.59l-6.11,.22Zm11.81-101.86v89.55c19.4-1.15,38.59-4.45,57.22-9.85-9.51-20.97-21.94-40.61-37-58.45h0c-6.27-7.43-13.05-14.55-20.22-21.26Zm-19.13,101.86l-6.11-.22c-24.74-.88-49.22-5.12-72.77-12.59l-6.16-1.95,2.5-5.96c15.72-37.51,39.55-70.17,70.82-97.06l1.51-1.3,1.99-.12c.68-.04,1.36-.07,2.04-.11l6.19-.3v119.6Zm-69.04-22.16c18.64,5.4,37.83,8.71,57.24,9.86V53.17c-24.45,22.79-43.66,49.53-57.24,79.7Zm-22.88,4.91l-5.41-2.16c-16.23-6.47-32.01-14.63-46.89-24.24l-5.79-3.74,4.58-5.15c2.47-2.77,4.96-5.43,7.41-7.91,26.53-26.8,59.76-45.44,96.11-53.9l19.23-4.48-13.61,14.3c-22.86,24.01-40.82,51.56-53.39,81.89l-2.23,5.38Zm-39.95-32.58c10.81,6.58,22.06,12.37,33.58,17.26,10.24-23.3,23.57-44.96,39.78-64.67-26.63,9.34-50.94,24.71-71.12,45.1-.74,.75-1.49,1.52-2.24,2.3Zm231.13,32.58l-2.24-5.36c-10.58-25.37-25.07-49.04-43.05-70.33-3.23-3.83-6.73-7.72-10.38-11.57l-13.54-14.28,19.17,4.46c36.02,8.39,69.02,26.77,95.42,53.17,2.68,2.68,5.41,5.58,8.13,8.64l4.58,5.15-5.79,3.74c-14.88,9.61-30.66,17.77-46.89,24.24l-5.4,2.15Zm-33.51-80c16.24,19.82,29.62,41.54,39.85,64.69,11.52-4.9,22.78-10.69,33.59-17.27-.98-1.03-1.95-2.02-2.92-2.99-20.06-20.06-44.16-35.2-70.53-44.44Z"/>
</svg>