<?xml version="1.0" encoding="UTF-8"?>
<svg id="Layer_1" data-name="Layer 1" xmlns="http://www.w3.org/2000/svg" viewBox="0 0 469.29 469.67">
  <g id="YbfJmw.tif">
    <path d="M238.02,465.43h-7.19c-35.65-34.63-68.23-71.96-96.87-112.58-34.31-48.65-64.31-99.39-72.18-160.05,0-10.8,0-21.59,0-32.39,.88-5.46,1.57-10.96,2.66-16.38C82,56.53,163.37-6.05,256.51,5.64c45.18,5.67,82.74,26.6,111.53,61.93,33.14,40.67,45.54,87.34,36.73,139.23-5.67,33.38-19.39,63.83-35.97,93-35.16,61.85-80.25,115.9-130.78,165.62Zm-7.39-366.25c-39.89,.78-79.96,37.25-74.05,88.17,4.45,38.4,39.64,73.66,87.92,68.03,38.27-4.47,73.73-39.88,67.68-88.16-5.26-41.98-42.33-70.34-81.55-68.04Z"/>
  </g>
</svg>