<?xml version="1.0" encoding="UTF-8"?>
<svg id="Layer_1" data-name="Layer 1" xmlns="http://www.w3.org/2000/svg" viewBox="0 0 469.29 469.67">
  <g id="Ynis9w.tif">
    <g>
      <path d="M463,366.1c-37.81,7.71-64.49,29.27-80.09,64.51-4.25,9.6-7.09,19.67-9.34,30.26-4.99-23.03-13.59-44.11-29.58-61.66-16.05-17.62-36.18-28.03-59.55-34.03,50.48-12.91,78.83-45.82,88.94-96,10.64,50.09,38.26,83.76,89.62,94.88v2.04Z"/>
      <path d="M169.89,445.63c-16.87-95.34-65.87-161.16-163.6-186.38,97.55-25.01,146.64-90.9,163.6-186.27,16.86,95.25,65.97,161.15,163.66,186.25-97.61,25.06-146.76,90.91-163.66,186.4Z"/>
      <path d="M316.46,8.79c10.19,50.08,38.53,82.87,89.1,95.76-50.58,12.83-79,45.69-89.1,95.95-10.15-50.1-38.36-83.01-89.06-95.93,50.5-12.81,78.88-45.72,89.06-95.77Z"/>
    </g>
  </g>
</svg>