<?xml version="1.0" encoding="UTF-8"?>
<svg id="Layer_1" data-name="Layer 1" xmlns="http://www.w3.org/2000/svg" viewBox="0 0 469.29 469.67">
  <defs>
    <style>
      .cls-1 {
        fill: #221f20;
      }
    </style>
  </defs>
  <path class="cls-1" d="M433.21,262.88c-.09-.09-.17-.17-.24-.24,.08-.08,.17-.17,.28-.28,7.41-7.2,13.38-13.17,18.8-18.8,21.21-22.02,21.1-54.83-.25-76.32-47.83-48.13-98.33-98.65-150.09-150.18-20.87-20.77-53.93-20.79-75.26-.03-6.1,5.94-12.58,12.28-18.78,18.86-.28,.29-.49,.49-.65,.62-.17-.14-.42-.37-.76-.72-5.98-6.29-12.25-12.46-18.32-18.42l-.11-.11c-6.69-6.58-13.98-6.59-20.54-.05-18.86,18.81-38.37,38.26-57.74,57.82-10.1,10.2-15.45,22.38-15.91,36.2-.51,15.6,5.24,29.51,17.09,41.34,13.31,13.27,26.59,26.57,39.88,39.86,17.41,17.42,35.4,35.43,53.16,53.09,.68,.68,.98,1.08,1.1,1.28-.13,.2-.42,.6-1.1,1.26-13.65,13.39-27.68,27.42-42.89,42.89-.6,.61-.97,.88-1.16,1-.18-.12-.52-.38-1.04-.95-5.02-5.41-10.37-10.62-14.99-15.08-6.61-6.38-13.19-6.46-20.11-.24-1.15,1.03-2.23,2.12-3.26,3.17l-.71,.72c-9.16,9.2-18.32,18.4-27.47,27.61-23.57,23.7-47.94,48.21-72.07,72.13-10.55,10.46-16.46,20.67-18.58,32.13l-.05,.29v14.07l.06,.3c3.56,18.12,13.46,31,29.43,38.28,2.39,1.09,4.86,1.86,7.24,2.61,1.05,.33,2.1,.66,3.13,1.01l.5,.17h17.97l.37-.09c10.66-2.56,19.08-7.04,25.75-13.71,34.66-34.66,71.51-71.52,107.54-107.65,6.99-7.01,6.94-13.95-.16-21.22l-1.91-1.95c-4.03-4.14-8.19-8.41-12.54-12.41-.7-.64-.99-1.02-1.11-1.21,.12-.2,.41-.61,1.1-1.3,15.16-14.86,28.98-28.69,42.24-42.28,1.07-1.1,1.58-1.42,1.78-1.51,.19,.09,.71,.39,1.73,1.42,32.2,32.52,64.84,65.11,92.9,93.11,10.85,10.82,24.51,16.86,38.47,17,.16,0,.33,0,.49,0,13.83,0,27.35-5.79,38.12-16.34,15.1-14.79,30.24-30.03,44.87-44.78,4.1-4.13,8.19-8.25,12.29-12.37,7.25-7.29,7.24-14.13-.03-21.54-5.84-5.95-12.13-12.31-18.46-18.46Zm-52.38,74.83c-1.81,1.83-3.68,3.72-5.57,5.49-9.91,9.31-24.96,10.07-35.77,1.81-1.63-1.25-3.28-2.73-5.35-4.8-18.77-18.81-37.52-37.63-56.28-56.45-20.32-20.39-40.64-40.78-60.97-61.16-33.98-34.06-62.12-62.21-88.54-88.57-6.47-6.46-9.36-13.05-9.1-20.77v-.11s0-.11,0-.11c-.24-7.54,2.33-13.91,7.85-19.46,6.24-6.26,12.48-12.52,18.73-18.77,10.18-10.19,20.71-20.73,31.02-31.15,.31-.32,.55-.52,.71-.65,.12,.1,.27,.25,.46,.46,3.41,3.75,6.9,7.24,10.38,10.37,.3,.27,.48,.47,.59,.61-.14,.18-.38,.47-.82,.89-5.36,5.13-10.64,10.49-15.76,15.67l-1.79,1.82c-10.61,10.75-16.49,24.47-16.57,38.64-.08,14.24,5.72,27.97,16.33,38.64,49.12,49.42,99.4,99.73,149.45,149.56,21.38,21.28,54.02,21.36,75.93,.2,7-6.77,13.05-12.83,18.48-18.52,.34-.36,.59-.57,.76-.7,.16,.13,.39,.34,.72,.7,3.56,3.95,6.67,7.06,9.78,9.78,.51,.44,.77,.74,.91,.93-.14,.21-.42,.57-.97,1.11-10.48,10.3-21.02,20.87-31.22,31.1-3.79,3.8-7.58,7.61-11.38,11.41-.67,.67-1.34,1.35-2.01,2.02Zm61.24-132.82c.2,8.17-2.42,14.88-8.01,20.52-4.32,4.36-8.64,8.73-12.96,13.1-13.64,13.79-27.74,28.05-41.77,41.9-13.31,13.14-29.75,13.14-42.91,.01-44.92-44.84-93.43-93.47-148.31-148.69-11.45-11.52-11.63-28.31-.42-39.92,17.78-18.43,36.86-37.53,56.69-56.75,5.66-5.48,12.47-8.21,19.39-8.21,7.52,0,15.16,3.22,21.57,9.6,18.82,18.74,37.9,37.86,56.36,56.34,7.23,7.24,14.46,14.49,21.7,21.73l22.21,22.24c15.33,15.34,30.65,30.69,45.99,46.02,7.47,7.46,10.79,14.42,10.47,21.9v.11s0,.11,0,.11Zm-308.57,96.87c.11,.09,.24,.21,.39,.37,11.28,11.48,22.6,22.81,33.65,33.68,.15,.15,.27,.28,.36,.38-.11,.13-.27,.3-.48,.51-13.4,13.37-26.78,26.77-40.17,40.16-19.48,19.49-39.61,39.65-59.49,59.41-7.54,7.49-16.75,9.13-26.65,4.74-9.31-4.13-14.14-11.65-14.35-22.34h0c-.13-6.59,2.18-12.18,7.06-17.07,13.85-13.89,27.72-27.77,41.59-41.66,18.89-18.91,38.43-38.47,57.62-57.74,.19-.19,.35-.34,.47-.45Z"/>
  <path class="cls-1" d="M294.15,128.57c-3.34-.12-6.52,1.08-8.96,3.43-2.51,2.41-3.94,5.82-3.93,9.34,.02,6.94,5.57,12.64,12.38,12.7,.04,0,.08,0,.12,0,6.78,0,12.33-5.6,12.41-12.53,.08-7.09-5.08-12.66-12.01-12.94Z"/>
  <path class="cls-1" d="M406,188.59c-3.42,.07-6.59,1.46-8.94,3.92-2.29,2.4-3.51,5.52-3.43,8.79,.17,6.85,5.76,12.19,12.73,12.19h.06c7.03-.03,12.6-5.45,12.68-12.34,.04-3.31-1.26-6.44-3.65-8.81-2.47-2.45-5.91-3.81-9.45-3.75Z"/>
  <path class="cls-1" d="M303.01,110.19h.08c3.26-.02,6.52-1.44,8.93-3.9,2.36-2.41,3.7-5.61,3.66-8.77-.08-6.76-5.83-12.54-12.56-12.63-3.38-.04-6.73,1.35-9.17,3.82-2.41,2.45-3.74,5.78-3.64,9.13,.2,6.82,5.89,12.34,12.7,12.34Z"/>
  <path class="cls-1" d="M337.11,144.68c.08,0,.16,0,.23,0,3.36,0,6.65-1.37,9.06-3.78,2.44-2.44,3.74-5.63,3.68-8.98-.14-6.86-5.79-12.44-12.61-12.44h-.02c-6.81,.01-12.64,5.69-12.73,12.41-.09,6.8,5.58,12.66,12.39,12.79Z"/>
  <path class="cls-1" d="M353.6,241.56s-.09,0-.13,0c-6.96,0-12.68,5.48-12.79,12.28-.05,3.3,1.19,6.43,3.49,8.79,2.37,2.43,5.59,3.79,9.07,3.83,.05,0,.1,0,.15,0,7.01,0,12.61-5.33,12.78-12.2,.08-3.25-1.16-6.37-3.49-8.78-2.38-2.46-5.68-3.89-9.07-3.92Z"/>
  <path class="cls-1" d="M250.1,137.89c-.07,0-.13,0-.2,0-3.37,.06-6.68,1.56-9.07,4.11-2.35,2.51-3.61,5.84-3.46,9.14,.32,6.6,6.09,12.02,12.71,12.02,.13,0,.27,0,.4,0,6.74-.22,12.49-6.26,12.32-12.93h0c-.17-6.62-6.09-12.34-12.71-12.34Z"/>
  <path class="cls-1" d="M284.6,172.45h-.03c-3.32,0-6.49,1.3-8.93,3.66-2.43,2.36-3.83,5.57-3.83,8.82-.01,7,5.51,12.55,12.56,12.62,.05,0,.1,0,.15,0,3.38,0,6.55-1.29,8.93-3.64,2.37-2.34,3.68-5.46,3.69-8.79,.02-6.97-5.6-12.66-12.53-12.68Z"/>
  <path class="cls-1" d="M362.66,197.63c-3.31-.02-6.41,1.28-8.81,3.66-2.42,2.39-3.81,5.68-3.82,9.01-.03,6.82,5.74,12.64,12.6,12.7h.1c3.17,0,6.34-1.34,8.71-3.69,2.44-2.42,3.83-5.71,3.81-9.02-.03-6.93-5.68-12.61-12.59-12.65Z"/>
  <path class="cls-1" d="M259.33,94.32h-.05c-6.95,0-12.64,5.56-12.7,12.42-.03,3.3,1.23,6.4,3.55,8.74,2.39,2.42,5.63,3.75,9.12,3.75h.01c3.44,0,6.63-1.26,8.99-3.54,2.39-2.31,3.7-5.46,3.7-8.86,0-6.99-5.54-12.48-12.62-12.51Z"/>
  <path class="cls-1" d="M215.79,103.38c-.07,0-.14,0-.22,0-3.29,0-6.35,1.22-8.64,3.44-2.39,2.32-3.73,5.52-3.78,9.02-.1,6.99,5.4,12.78,12.25,12.91,.08,0,.15,0,.23,0,3.17,0,6.2-1.25,8.55-3.54,2.44-2.37,3.85-5.67,3.88-9.03h0c.06-7.18-5.22-12.69-12.27-12.8Z"/>
  <path class="cls-1" d="M318.8,206.8c-6.74,.15-12.41,6.05-12.38,12.87,.01,3.32,1.41,6.58,3.84,8.96,2.38,2.33,5.45,3.6,8.66,3.6,.08,0,.15,0,.22,0,7.04-.13,12.32-5.64,12.28-12.83h0c-.02-3.49-1.39-6.73-3.86-9.13-2.38-2.31-5.48-3.56-8.76-3.47Z"/>
  <path class="cls-1" d="M372.02,153.82h-.04c-6.83,0-12.48,5.64-12.6,12.58-.06,3.39,1.22,6.6,3.6,9.05,2.34,2.41,5.46,3.76,8.76,3.8,.05,0,.1,0,.15,0,3.25,0,6.3-1.24,8.61-3.51,2.42-2.37,3.76-5.6,3.79-9.08,.03-3.56-1.28-6.85-3.67-9.26-2.28-2.3-5.33-3.57-8.6-3.58Z"/>
  <path class="cls-1" d="M337.37,167.1c-2.41-2.42-5.67-3.75-9.17-3.75h-.02c-7.08,.01-12.65,5.48-12.68,12.46-.01,3.29,1.29,6.41,3.68,8.8,2.38,2.38,5.64,3.73,8.96,3.73h.08c6.85-.05,12.67-5.8,12.71-12.56,.02-3.26-1.25-6.34-3.56-8.67Z"/>
  <path class="cls-1" d="M268.49,75.77c.07,0,.14,0,.21,0,6.72-.12,12.36-6.03,12.3-12.91h0c-.06-7-5.6-12.47-12.62-12.47h-.04c-3.3,0-6.36,1.27-8.62,3.55-2.37,2.39-3.66,5.67-3.64,9.25,.02,3.38,1.42,6.68,3.85,9.05,2.34,2.28,5.36,3.53,8.55,3.53Z"/>
</svg>