<?xml version="1.0" encoding="UTF-8"?>
<svg id="Layer_1" data-name="Layer 1" xmlns="http://www.w3.org/2000/svg" viewBox="0 0 469.29 469.67">
  <path d="M272.61,37.28l28.03,86.27c5.34,16.45,20.67,27.58,37.96,27.58h90.71c38.67,0,54.74,49.48,23.46,72.2l-73.38,53.32c-13.99,10.16-19.84,28.18-14.5,44.62l28.03,86.27c11.95,36.77-30.14,67.35-61.42,44.62l-73.38-53.32c-13.99-10.16-32.93-10.16-46.92,0l-73.38,53.32c-31.28,22.73-73.37-7.85-61.42-44.62l28.03-86.27c5.34-16.45-.51-34.46-14.5-44.62L16.53,223.33c-31.28-22.73-15.2-72.2,23.46-72.2h90.71c17.29,0,32.62-11.13,37.96-27.58l28.03-86.27c11.95-36.77,63.97-36.77,75.92,0Z"/>
</svg>