<?xml version="1.0" encoding="UTF-8"?>
<svg id="Layer_1" data-name="Layer 1" xmlns="http://www.w3.org/2000/svg" viewBox="0 0 469.29 469.67">
  <g id="Fs04dI.tif">
    <path d="M250.35,463.69h-31.13c-9.29-1.27-18.66-2.1-27.85-3.87C68.11,435.98-12.83,317.56,9.61,194.05,32.98,65.41,159.62-18.53,286.64,12.41c85.81,20.9,141.55,75.69,168.22,159.88,4.86,15.33,6.9,31.25,8.55,47.2v31.13c-1.15,8.49-1.65,17.06-3.47,25.46-20.04,92.64-75.44,152.68-166.14,180.09-14.14,4.27-28.8,5.96-43.45,7.51Zm-35.66-290.76c0,20.43,.02,40.85-.01,61.28,0,5.42,1.45,10.37,5.27,14.22,21.14,21.28,42.31,42.52,63.63,63.62,4.76,4.72,10.87,6.41,17.52,4.88,7.73-1.78,12.92-6.49,15.18-14.18,2.28-7.77,.06-14.44-5.48-20.01-17.14-17.25-34.3-34.48-51.62-51.56-3.14-3.1-4.39-6.31-4.37-10.69,.14-36.15,.1-72.31,.06-108.46-.01-12.5-8.58-21.6-20.14-21.57-11.54,.03-20,9.13-20.03,21.68-.04,20.27-.01,40.53,0,60.8Z"/>
  </g>
</svg>