<?xml version="1.0" encoding="utf-8"?>
<!-- Generator: Adobe Illustrator 27.0.0, SVG Export Plug-In . SVG Version: 6.00 Build 0)  -->
<svg version="1.1" id="Layer_1" xmlns="http://www.w3.org/2000/svg" xmlns:xlink="http://www.w3.org/1999/xlink" x="0px" y="0px"
	 viewBox="0 0 1530.7 337.1" style="enable-background:new 0 0 1530.7 337.1;" xml:space="preserve">
<style type="text/css">
	.st0{fill:url(#SVGID_1_);}
</style>
<linearGradient id="SVGID_1_" gradientUnits="userSpaceOnUse" x1="8.117744e-02" y1="169.3398" x2="1530.7" y2="169.3398" gradientTransform="matrix(1 0 0 -1 0 337.8898)">
	<stop  offset="0" style="stop-color:#C2A9F2"/>
	<stop  offset="0.1358" style="stop-color:#CDA9ED"/>
	<stop  offset="0.2809" style="stop-color:#D1A9EB"/>
	<stop  offset="0.6685" style="stop-color:#DFADE2"/>
	<stop  offset="0.8876" style="stop-color:#DDA6D7"/>
	<stop  offset="1" style="stop-color:#DBA1CD"/>
</linearGradient>
<path class="st0" d="M498.2,319.8c-1.5-7.9-3.2-24-3.2-43.8V152.4c0-27.5-8-48.6-23.8-62.7c-15.7-14-39-21-69.4-21
	c-31.5,0-55.8,8.8-72.2,26.2c-14.8,15.7-19.6,34.8-21.1,48.1l-0.4,3.8l-0.6,5.5h5.6h3.8h23.8h2.6h3.8l1-3.7l0.7-2.5
	c2.5-9.2,5-18.8,12.1-26.1c8.2-8.5,21.4-12.6,40.4-12.6c21.4,0,36.5,5.3,44.7,15.8c7.6,9.7,8.5,22.7,8.5,31.6v15.9h-36.9
	c-38,0-67.4,6.7-87.5,19.9c-21.9,14.4-33,36.2-33,64.8c0,21.2,7.5,40.8,21.2,55c15.7,16.3,38.6,24.9,66.4,24.9
	c23.6,0,43.5-5.4,59.2-16.1c4.5-3.1,8.7-6.6,12.4-10.5c0.8,6.5,1.7,11.5,2.9,15.1l0.8,2.3l1.1,3.4h3.6h2.4H490h4.1h6l-1.1-5.9
	L498.2,319.8z M454.9,208.2c0,38.7-6.4,54.2-12.1,63.3c-10.4,16.9-29.1,25.1-57.3,25.1c-14.1,0-26-4.1-34.2-11.8
	c-8-7.5-12.2-18-12.2-30.4c0-16.8,6-28.1,18.9-35.6c12.7-7.3,31.9-10.9,58.6-10.9H455L454.9,208.2L454.9,208.2z M716.7,242.8h6.5
	l-1.7,6.3l-1.2,4.3c-6.6,24.4-17.7,43.7-33,57.6c-17.7,16.2-40.5,24.4-67.7,24.4c-32.5,0-60.1-12.1-79.8-35.1
	c-20.1-23.4-30.7-57.1-30.7-97.3c0-35.7,9.9-68.5,27.9-92.5c20.5-27.4,50.1-41.8,85.5-41.8c28.9,0,53.6,9.5,71.2,27.4
	c14.5,14.7,24,34.7,26.7,56.2l0.5,3.8l0.7,5.6h-5.7h-3.8h-24.3h-2.6h-3.9l-1-3.7l-0.7-2.5c-3.7-14.2-9.7-25.4-18.1-33.4
	c-9.9-9.5-23.2-14.3-39.6-14.3c-21.5,0-39.4,8.8-51.8,25.5c-12.4,16.8-19,40.5-19,68.6c0,27,6.4,51,18.1,67.8
	c12.1,17.3,29.4,26.4,50.3,26.4c15.3,0,27.5-3.7,37.1-11.2c9.8-7.7,17.3-19.6,23.2-36.5l0.8-2.3l1.2-3.4h3.6h2.4h24.3h4.6V242.8z
	 M939.4,244.5h6.5l-1.7,6.3l-1.2,4.3c-6.6,24.4-17.7,43.7-33,57.6c-17.7,16.2-40.5,24.4-67.7,24.4c-32.5,0-60.1-12.1-79.8-35.1
	c-19.9-23.3-30.5-57-30.5-97.3c0-35.7,9.9-68.5,27.9-92.5c20.5-27.4,50.1-41.8,85.5-41.8c28.9,0,53.6,9.5,71.2,27.4
	c14.5,14.7,24,34.7,26.7,56.2l0.5,3.8l0.7,5.6h-5.7H935h-24.3H908h-3.9l-1-3.7l-0.7-2.5c-3.7-14.2-9.7-25.4-18.1-33.4
	c-9.9-9.5-23.2-14.3-39.6-14.3c-21.5,0-39.4,8.8-51.8,25.5c-12.4,16.8-19,40.5-19,68.6c0,27,6.4,51,18.1,67.8
	c12.1,17.3,29.4,26.4,50.3,26.4c15.3,0,27.5-3.7,37.1-11.2c9.8-7.7,17.3-19.6,23.2-36.5l0.8-2.3l1.2-3.4h3.6h2.4H935L939.4,244.5
	L939.4,244.5z M1067.1,70.4c-35.4,0-64.6,14.3-84.6,41.3c-17.6,23.8-27.3,57.2-27.3,94c0,34.5,8.7,66.1,24.6,89
	c19.3,27.8,48.4,42.4,84.4,42.4c28.6,0,52.4-8,70.7-23.9c14.3-12.3,24.8-28.9,31.2-49.2l1.4-4.4l2.1-6.5h-6.8h-4.6h-24.3h-2.2h-3.3
	l-1.3,3l-0.9,2c-9.1,20.7-22.8,39.8-61,39.8c-20,0-36.9-8.1-49-23.6c-11.4-14.6-18.2-35-19.6-59.4h166.9h3.1h4.6l0.4-4.6l0.2-3.1
	c0.5-6.5,0.5-13.5,0.5-20.2c0-27.8-8.2-55.4-22.4-75.8C1131.2,84.5,1102.6,70.4,1067.1,70.4z M998.9,177.3
	c3.4-21.8,10.5-38.5,21-49.7c11.2-11.9,26.7-17.9,46.2-17.9c19.6,0,36,7.4,47.3,21.4c9.4,11.6,15.3,27.9,16.9,46.3H998.9V177.3z
	 M1359.6,91.2c17.7,17.1,26.7,42.5,26.7,75.6v154.5v3.4v5h-5h-3.4H1354h-3.4h-5v-5v-3.4V170.6c0-20.1-4.1-35.5-12.2-45.8
	c-8.3-10.6-21.3-15.9-38.5-15.9c-23.4,0-41,8.9-52.4,26.3c-10.1,15.5-15.5,37.8-15.5,64.5v121.6v3.4v5h-5h-3.4h-23.8h-3.4h-5v-5
	v-3.4V142.9c0-21,0-40.9-0.5-59.9l-0.1-3.5l-0.1-5.1h5.1h3.5h23.4h3h4.4l0.5,4.4l0.4,3c0.4,3,0.7,9.4,0.9,16.4
	c3.6-4.2,7.4-8,11.6-11.3c15.3-12.1,35.3-18.2,59.3-18.2C1322.9,68.7,1344.3,76.5,1359.6,91.2z M1530.7,74.4v5v3.4v22.4v3.4v5h-5
	h-3.4H1474v146.6c0,28.6,6.5,33.6,20.2,33.6c9.4,0,17.1-0.9,22.3-2.5l4.4-1.4l6.5-2v6.8v4.6v21v2.3v3.3l-3.1,1.3l-2.1,0.9
	c-9.9,4.1-23.3,4.9-32.8,4.9c-18.3,0-31.8-4.9-41.4-15c-9.9-10.5-14.7-25.8-14.7-46.8V113.6h-36h-3.4h-5v-5v-3.4V82.8v-3.4v-5h5h3.4
	h36v-66V5V0h5h3.4h23.8h3.4h5v5v3.4v66h48.4h3.4H1530.7z M189.3,327.3c-6.6-1-13.1-2.4-19.2-5.1c-12.7-5.6-22.2-14.8-29.4-26.4
	c-0.7-1.1-0.7-2.2-0.3-3.4c3.4-10.1,4.8-20.5,4.7-31c0-8.7-1.2-17.3-4.1-25.5c-0.6-1.8-0.3-2.7,1.4-3.6c3.4-1.8,6.2-4.3,8.3-7.6
	c0.8-1.1,1.7-1.7,3.1-1.8c17.5-0.8,33,4.1,45.7,16.4c10.4,10.1,16.6,22.5,19.8,36.6c3.2,14.5,3.4,29,1,43.6
	c-0.6,3.8-2.4,5.6-6.2,6.3c-2.9,0.5-5.8,0.9-8.7,1.4C200.1,327.3,194.7,327.3,189.3,327.3z M62.4,327.3c-4.5-0.7-9-1.3-13.4-2.4
	c-2.5-0.7-4.6-1.9-5.4-4.5c-5.1-15.1-6.6-30.4-0.8-45.7c5.1-13.6,14.9-23,27.1-30.2c1.7-1,3.8-0.8,5.6-1.2
	c12.7-2.4,24.8-6.4,35.9-13c1.4-0.8,2.4-0.8,3.6,0.2c2.4,1.9,5.1,3.3,8.1,4.1c1.7,0.4,2.5,1.4,3.1,2.9c3.7,9.8,4.8,19.8,4.2,30.2
	c-0.6,9.4-2.3,18.6-6.7,27c-9.3,17.8-24.3,27.8-43.8,31.7c-1.8,0.4-3.6,0.6-5.5,0.9C70.5,327.3,66.4,327.3,62.4,327.3z M259.1,171.6
	c-2.5,7.9-5.2,15.6-9.3,22.9c-7,12.4-16.2,22.3-30,27.2c-4.1,1.4-8.3,2.1-12.6,2.7c-1.8,0.2-3.2-0.2-4.7-1.3
	c-13-9.6-27.6-14.4-43.8-14.3c-2.2,0-3.2-0.4-3.5-2.9c-0.7-5.6-3.1-10.5-7.2-14.4c-1.6-1.5-1.8-2.9-1-4.9
	c9.3-22.8,25-38.2,49.8-42.5c16.3-2.9,31.4,1,45.6,9.2c5.2,3,10,6.6,14.5,10.5c1,0.8,1.6,1.9,2.3,3
	C259.1,168.2,259.1,169.9,259.1,171.6z M43.1,141.7c13.4-0.2,24.7,4.8,34.4,13.9c0.9,0.9,1.3,1.9,1.7,3
	c4.7,15.8,12.9,29.4,25.3,40.3c1.2,1.1,1.7,2.1,1.2,3.7c-1.2,3.9-1.4,8-0.5,12c0.5,1.9-0.3,2.8-1.7,3.6c-8,4.7-16.7,7.6-25.6,9.8
	c-18.3,4.4-35.2,2-50.2-10.1c-7.8-6.3-13.9-13.9-18.4-22.8c-5.4-10.9-8.5-22.5-9.2-34.6c-0.2-3.2,1.2-5.4,3.9-7
	c10.5-6.1,21.7-10.3,33.9-11.7C39.5,141.5,41.3,141.7,43.1,141.7z M169.7,122c-0.1,5.1-0.8,10.1-1.7,15c-0.3,1.5-1,2.5-2.3,3.4
	c-15.3,10-25.7,23.8-32.2,40.7c-0.8,2-1.7,2.8-3.8,2.7c-4.7-0.2-9,1.1-12.9,3.8c-1.6,1.1-2.6,0.9-3.9-0.4
	c-11.7-11-18.7-24.6-21.7-40.2c-2.9-15.5-1.9-30.7,5.2-45.1c7-14.1,17.8-24.5,31.2-32.6c2.1-1.3,4.4-1.5,6.5-0.4
	c16.3,8.3,28.6,20,33.7,38.2C169.1,111.9,169.7,116.9,169.7,122z"/>
</svg>
