<?xml version="1.0" encoding="UTF-8"?>
<svg id="Layer_1" data-name="Layer 1" xmlns="http://www.w3.org/2000/svg" viewBox="0 0 2271.86 387.85">
  <path d="M229.29,0c35.49,8.01,68.84,20.6,98.54,42.22,11.7,8.51,15.29,16.02,3.2,26.43-.5,.43-.81,1.06-1.27,1.54-10.06,10.59-18.31,24.85-30.65,30.82-15.15,7.34-24.88-11.29-37.94-16.72-65.93-27.45-144.97-14.02-170.65,62.69-13.5,40.34-8.84,81.35,22.09,115.48,28.94,31.93,64.77,43.3,106.76,34.7,33.1-6.78,55.32-27.83,70.98-56.61,7.53-13.84,5.09-20.95-12.31-20.55-21.39,.49-42.81-.54-64.19,.1-15.36,.46-21.49-5.2-21.2-20.92,.99-52.26-4.05-44.77,44.69-45.17,40.12-.33,80.26,.4,120.37-.26,15.61-.26,20.51,5.69,21.34,20.94,3.91,71.66-19.54,130.41-80.71,171.33-70.78,47.36-198.64,43.87-262.28-45.33C-22.98,217.9-8.23,103.37,70.83,39.39,95.29,19.6,123.03,7.76,153.05,0h76.25Z"/>
  <path d="M2271.86,238.74c-9.33,20.47-13.87,42.69-25.55,62.42-32.51,54.94-81.25,81.65-144.41,86.03-72.19,5-131.63-18.17-174.23-77.21-48.46-67.17-48.02-173.99,20.42-245.17,56.73-58.99,156.37-72.6,230.77-28.92,42.44,24.91,73.73,58.54,87.25,106.66,1.24,4.4,3.79,8.43,5.74,12.63v83.56Zm-186.11-154.43c-63.03-.23-113.57,47.15-113.63,106.51-.08,71.96,46.35,126.42,107.73,126.36,67.55-.06,114.4-47.74,114.49-116.53,.1-70.26-42.69-116.11-108.59-116.35Z"/>
  <path d="M847.28,0c18.46,5.61,37.09,10.56,53.37,21.74,27.65,18.98,43.98,44.07,44.05,78.03,.17,83.48-.17,166.95,.29,250.43,.08,15.29-5.26,22.08-20.99,21-10.64-.73-21.47-1.04-32.04,.08-20,2.11-25.06-7.17-24.88-25.47,.7-69.55,.25-139.12,.21-208.68,0-5.96,.05-11.94-.32-17.88-2.02-32.34-18.62-47.41-51.79-47.16-32.81,.24-50.35,15.95-50.69,48.09-.67,63.59-.23,127.2-.26,190.8,0,13.91-.38,27.83,.02,41.73,.35,12.18-4.11,18.75-17.32,18.38-14.69-.41-29.4-.35-44.09-.02-11.93,.27-16.94-5.35-16.92-16.81,.16-86.12-1.53-172.3,.98-258.35,1.36-46.57,34.2-72.54,75.31-88.69C770.2,4.07,778.78,2.37,787.09,0c20.06,0,40.13,0,60.19,0Z"/>
  <path d="M1172.32,0c30.72,8.24,59.4,19.35,79.5,46.19,11.24,15.01,17.97,30.86,17.98,49.44,.06,84.86-.21,169.72,.27,254.57,.09,15.39-5.39,21.35-21.02,21.03-64.42-1.33-56.34,8.66-56.73-53.6-.4-63.64,.06-127.29-.16-190.93-.13-37.76-15.9-54.6-50.29-54.65-35.64-.05-52.37,17.18-52.5,55.04-.26,72.92-.64,145.85,.11,218.77,.19,18.47-4.97,26.14-24.81,25.54-61.29-1.84-53.3,8.23-53.71-52.48-.41-60.99-.09-121.98-.09-182.97,0-85.36,19.6-111.67,101.24-135.95h60.19Z"/>
  <path d="M1609.12,242.02c.02-38.45-.62-76.92,.17-115.36,1.15-55.65,34.14-97.88,85.69-111.39,61.32-16.08,117.07,2.98,145.8,50.88,20.02,33.38,20.66,89.87-16.53,117.72-11.71,8.77-13.81,14.55,1.2,21.9,24.17,11.84,33.79,32.96,34.04,58.67,.32,33.15-.24,66.31,.3,99.45,.21,13.09-4.43,18.25-18.09,20.11-58.33,7.95-60.63,6.5-60.63-49.95,0-16.58,.13-33.15-.04-49.73-.35-33.43-13.59-48.17-47.48-47.23-19.89,.56-25.03-7.17-23.39-24.25,.19-1.97,.02-3.98,0-5.96-.23-32.06-.32-32.44,31.04-40.08,19.67-4.79,32.76-15.64,34.77-35.94,1.76-17.72-4.94-32.59-21.19-41.88-15.25-8.73-39.5-6.31-52.87,4.85-12.52,10.45-14.61,24.45-14.59,39.55,.08,74.25,.06,148.51-.22,222.76-.1,26.65-.51,25.87-26.31,27.2-61.86,3.19-50.73,1.45-51.61-51.82-.49-29.83-.09-59.67-.07-89.5Z"/>
  <path d="M564.42,223.19c-17.38,.02-34.77,.48-52.12-.11-16.14-.55-17.83,6.6-13.03,19.71,12.08,32.96,44.43,55.8,83.68,57.86,12.67,.66,25.87-1.82,37.99,.88,29.37,6.52,10.39,30.45,14.4,46.05,2.62,10.22,2.92,23.14-15.04,23.66-37.68,1.09-74.67-.69-110.11-15.65-40.37-17.03-63.31-48.98-79.93-87.33-36.77-84.83-11.42-182.98,61.54-237.25C531.67,1.34,578.37-2.56,623.83,5.24c25.89,4.44,7.32,34.02,11.68,51.7,2.41,9.75-1.12,18.74-14.14,18.88-12.7,.14-25.39,.24-38.09,.35-39.48,.34-64.53,22.54-81.61,54.9-9.71,18.4-5.96,23.11,14.93,23.2,32.75,.15,65.5,.52,98.24-.13,15.33-.31,21.6,5.05,21.26,20.76-1.17,54.34,6.7,47.7-47.62,48.26-8.02,.08-16.04,.01-24.06,.03Z"/>
  <path d="M1479.06,166.3c17.38,0,34.77,.3,52.14-.1,12.96-.3,19.88,3.88,19.68,18.18-.81,57.49,6.86,50.21-49.23,50.66-24.73,.2-49.46,.09-74.18-.12-14.77-.13-19.17,4.46-12.44,19.2,17.88,39.14,47.05,59.1,91.03,58.93,50.41-.19,43.42-6.76,45.12,44.4,.66,19.97-5.69,25.96-26.02,26.26-49.56,.74-97.82-4.89-134.96-39.49-92.86-86.49-80.64-251.27,38.66-313.7,34.68-18.15,73.44-21.06,109.51-13.37,25.92,5.53,8.04,35.02,12.07,53.31,2.34,10.6-2.68,17.96-15.24,17.77-11.36-.17-22.73,0-34.09,.16-40.89,.61-74.66,25.74-87.45,63.87-3.4,10.13-.49,13.77,9.26,13.83,18.72,.12,37.43,.03,56.15,.03,0,.05,0,.11,0,.16Z"/>
</svg>